<?xml version="1.0" standalone="no"?>
<!DOCTYPE svg PUBLIC "-//W3C//DTD SVG 20010904//EN"
 "http://www.w3.org/TR/2001/REC-SVG-20010904/DTD/svg10.dtd">
<svg version="1.0" xmlns="http://www.w3.org/2000/svg"
 width="512.000000pt" height="512.000000pt" viewBox="0 0 512.000000 512.000000"
 preserveAspectRatio="xMidYMid meet">
<metadata>
Created by potrace 1.14, written by Peter Selinger 2001-2017
</metadata>
<g transform="translate(0.000000,512.000000) scale(0.100000,-0.100000)"
fill="#000000" stroke="none">
<path d="M3000 5060 c0 -18 -7 -20 -80 -20 -73 0 -80 -2 -80 -20 0 -19 -7 -20
-120 -20 -113 0 -120 -1 -120 -20 0 -19 -7 -20 -100 -20 -93 0 -100 -1 -100
-20 0 -18 -7 -20 -60 -20 -53 0 -60 -2 -60 -20 0 -18 -7 -20 -60 -20 -53 0
-60 -2 -60 -20 0 -17 -7 -20 -40 -20 -33 0 -40 -3 -40 -20 0 -18 -7 -20 -60
-20 -53 0 -60 -2 -60 -20 0 -17 -7 -20 -40 -20 -33 0 -40 -3 -40 -20 0 -17 -7
-20 -40 -20 -33 0 -40 -3 -40 -20 0 -17 -7 -20 -40 -20 -33 0 -40 -3 -40 -20
0 -13 -7 -20 -20 -20 -13 0 -20 -7 -20 -20 0 -17 -7 -20 -40 -20 -33 0 -40 -3
-40 -20 0 -13 -7 -20 -20 -20 -13 0 -20 -7 -20 -20 0 -13 -7 -20 -20 -20 -13
0 -20 -7 -20 -20 0 -13 -7 -20 -20 -20 -13 0 -20 -7 -20 -20 0 -17 -7 -20 -40
-20 -33 0 -40 -3 -40 -20 0 -13 -7 -20 -20 -20 -13 0 -20 -7 -20 -20 0 -13 -7
-20 -20 -20 -13 0 -20 -7 -20 -20 0 -13 -7 -20 -20 -20 -17 0 -20 -7 -20 -40
0 -33 -3 -40 -20 -40 -13 0 -20 -7 -20 -20 0 -13 -7 -20 -20 -20 -17 0 -20 -7
-20 -40 0 -33 -3 -40 -20 -40 -18 0 -20 -7 -20 -60 0 -53 -2 -60 -20 -60 -19
0 -20 -7 -20 -200 0 -193 1 -200 20 -200 17 0 20 -7 20 -40 0 -33 3 -40 20
-40 18 0 20 -7 20 -80 0 -73 2 -80 20 -80 19 0 20 -7 20 -220 0 -213 -1 -220
-20 -220 -17 0 -20 -7 -20 -40 0 -33 -3 -40 -20 -40 -17 0 -20 -7 -20 -40 0
-33 -3 -40 -20 -40 -18 0 -20 -7 -20 -60 0 -53 -2 -60 -20 -60 -19 0 -20 -7
-20 -160 0 -153 -1 -160 -20 -160 -13 0 -20 -7 -20 -20 0 -13 7 -20 20 -20 18
0 20 -7 20 -80 0 -73 2 -80 20 -80 13 0 20 -7 20 -20 0 -13 7 -20 20 -20 13 0
20 -7 20 -20 0 -13 7 -20 20 -20 13 0 20 -7 20 -20 0 -13 7 -20 20 -20 13 0
20 -7 20 -20 0 -13 7 -20 20 -20 13 0 20 -7 20 -20 0 -13 7 -20 20 -20 13 0
20 -7 20 -20 0 -17 7 -20 40 -20 33 0 40 -3 40 -20 0 -13 7 -20 20 -20 13 0
20 -7 20 -20 0 -13 7 -20 20 -20 13 0 20 -7 20 -20 0 -13 7 -20 20 -20 13 0
20 -7 20 -20 0 -17 7 -20 40 -20 33 0 40 -3 40 -20 0 -20 7 -20 300 -20 293 0
300 0 300 20 0 17 7 20 40 20 33 0 40 3 40 20 0 13 7 20 20 20 20 0 20 -7 20
-400 0 -393 0 -400 -20 -400 -13 0 -20 -7 -20 -20 0 -13 7 -20 20 -20 19 0 20
-7 20 -140 0 -133 -1 -140 -20 -140 -19 0 -20 -7 -20 -120 0 -113 -1 -120 -20
-120 -19 0 -20 -7 -20 -120 l0 -120 -40 0 c-33 0 -40 -3 -40 -20 0 -13 7 -20
20 -20 13 0 20 -7 20 -20 0 -13 7 -20 20 -20 13 0 20 7 20 20 0 18 7 20 80 20
73 0 80 2 80 20 0 19 7 20 140 20 133 0 140 1 140 20 0 18 7 20 60 20 53 0 60
2 60 20 0 19 7 20 120 20 113 0 120 1 120 20 0 19 7 20 120 20 113 0 120 1
120 20 0 17 -7 20 -40 20 l-40 0 0 40 c0 33 -3 40 -20 40 -17 0 -20 7 -20 40
0 33 -3 40 -20 40 -17 0 -20 7 -20 40 0 33 -3 40 -20 40 -18 0 -20 7 -20 60 0
53 -2 60 -20 60 -19 0 -20 7 -20 100 0 93 -1 100 -20 100 -19 0 -20 7 -20 200
0 193 1 200 20 200 20 0 20 7 20 280 l0 280 60 0 c53 0 60 -2 60 -20 0 -19 7
-20 140 -20 133 0 140 1 140 20 0 19 7 20 120 20 l120 0 0 40 0 40 40 0 c33 0
40 3 40 20 0 17 7 20 40 20 33 0 40 3 40 20 0 13 7 20 20 20 13 0 20 7 20 20
0 13 7 20 20 20 13 0 20 7 20 20 0 17 7 20 40 20 33 0 40 3 40 20 0 17 7 20
40 20 33 0 40 3 40 20 0 13 7 20 20 20 13 0 20 7 20 20 0 13 7 20 20 20 13 0
20 7 20 20 0 13 7 20 20 20 13 0 20 7 20 20 0 13 7 20 20 20 13 0 20 7 20 20
0 13 7 20 20 20 13 0 20 7 20 20 0 13 7 20 20 20 17 0 20 7 20 40 0 33 3 40
20 40 18 0 20 7 20 60 0 53 2 60 20 60 19 0 20 7 20 220 0 213 -1 220 -20 220
-18 0 -20 7 -20 80 l0 80 -40 0 -40 0 0 60 c0 53 2 60 20 60 19 0 20 7 20 220
0 213 -1 220 -20 220 -17 0 -20 7 -20 40 0 33 -3 40 -20 40 -13 0 -20 7 -20
20 0 13 -7 20 -20 20 -18 0 -20 7 -20 60 0 53 -2 60 -20 60 -19 0 -20 7 -20
220 0 213 -1 220 -20 220 -17 0 -20 7 -20 40 0 33 -3 40 -20 40 -13 0 -20 7
-20 20 0 13 -7 20 -20 20 -13 0 -20 7 -20 20 0 13 -7 20 -20 20 -17 0 -20 7
-20 40 0 33 -3 40 -20 40 -13 0 -20 7 -20 20 0 13 -7 20 -20 20 -13 0 -20 7
-20 20 0 13 -7 20 -20 20 -17 0 -20 7 -20 40 0 33 -3 40 -20 40 -13 0 -20 7
-20 20 0 13 -7 20 -20 20 -13 0 -20 7 -20 20 0 13 -7 20 -20 20 -13 0 -20 7
-20 20 0 17 -7 20 -40 20 -33 0 -40 3 -40 20 0 17 -7 20 -40 20 -33 0 -40 3
-40 20 0 19 -7 20 -100 20 -93 0 -100 1 -100 20 0 18 -7 20 -80 20 -73 0 -80
2 -80 20 0 19 -7 20 -120 20 -113 0 -120 -1 -120 -20z"/>
</g>
</svg>
